<?xml version="1.0" encoding="UTF-8"?>
<svg id="Layer_2" data-name="Layer 2" xmlns="http://www.w3.org/2000/svg" viewBox="0 0 8.56 5">
  <g id="Layer_1-2" data-name="Layer 1">
    <path d="M.06.44c.04-.09.09-.16.15-.23s.14-.12.23-.15.18-.06.28-.06.18.02.27.06.17.09.23.15l3.06,3.06L7.34.21c.14-.14.31-.21.51-.21.1,0,.19.02.27.06s.16.09.23.16.12.14.16.23.06.18.06.27c0,.2-.07.37-.21.51l-3.57,3.57c-.07.07-.14.12-.23.16s-.18.06-.28.06c-.19,0-.36-.07-.5-.21L.21,1.22c-.14-.14-.21-.31-.21-.51,0-.1.02-.19.06-.28Z"/>
  </g>
</svg>