<?xml version="1.0" encoding="UTF-8"?>
<svg id="Layer_2" data-name="Layer 2" xmlns="http://www.w3.org/2000/svg" viewBox="0 0 504 121.5">
  <defs>
    <style>
      .cls-1 {
        fill: #ff7900;
      }

      .cls-2 {
        fill: #fff;
      }
    </style>
  </defs>
  <g id="Layer_1-2" data-name="Layer 1">
    <g>
      <polygon class="cls-1" points="504 0 382.5 121.5 0 121.5 0 0 504 0"/>
      <g>
        <path class="cls-2" d="M53.7,80.41l-1.68-7.48h-9.22l-1.68,7.48h-9.28l9.98-41.06h11.66l9.92,41.06h-9.69ZM47.55,48.28h-.23l-3.48,17.46h7.02l-3.31-17.46Z"/>
        <path class="cls-2" d="M84.73,80.41l-9.51-25h-.17l.23,25h-8.29v-41.06h10.21l9.46,25.35h.17l-.17-25.35h8v41.06h-9.92Z"/>
        <path class="cls-2" d="M101.96,80.41v-41.06h9.34v41.06h-9.34Z"/>
        <path class="cls-2" d="M146.91,80.41l.35-28.19h-.23l-6.9,28.19h-6.55l-6.67-28.19h-.17l.29,28.19h-8.41v-41.06h11.72l6.61,26.45h.23l6.44-26.45h12.41v41.06h-9.11Z"/>
        <path class="cls-2" d="M181.53,80.41l-1.68-7.48h-9.22l-1.68,7.48h-9.28l9.98-41.06h11.66l9.92,41.06h-9.69ZM175.38,48.28h-.23l-3.48,17.46h7.02l-3.31-17.46Z"/>
        <path class="cls-2" d="M206.7,47.23v33.18h-9.11v-33.18h-7.54v-7.89h24.19v7.89h-7.54Z"/>
        <path class="cls-2" d="M217.84,80.41v-41.06h9.34v41.06h-9.34Z"/>
        <path class="cls-2" d="M264.35,59.76c0,3.25-.37,6.22-1.1,8.9-.73,2.69-1.78,4.98-3.13,6.87-1.35,1.9-3.01,3.36-4.96,4.41-1.95,1.04-4.15,1.57-6.58,1.57s-4.63-.52-6.58-1.57c-1.95-1.04-3.61-2.51-4.96-4.41-1.35-1.89-2.4-4.18-3.13-6.87-.74-2.69-1.1-5.66-1.1-8.9s.36-6.2,1.07-8.84c.71-2.65,1.75-4.91,3.1-6.79,1.35-1.88,3.01-3.32,4.96-4.35,1.95-1.02,4.17-1.54,6.64-1.54s4.63.51,6.58,1.54c1.95,1.03,3.6,2.47,4.96,4.35,1.35,1.88,2.4,4.14,3.13,6.79.73,2.65,1.1,5.6,1.1,8.84ZM254.84,59.76c0-1.78-.14-3.43-.41-4.96-.27-1.53-.67-2.85-1.19-3.97-.52-1.12-1.17-2-1.94-2.64-.77-.64-1.68-.96-2.73-.96s-1.96.32-2.75.96c-.79.64-1.45,1.52-1.97,2.64-.52,1.12-.91,2.45-1.16,3.97-.25,1.53-.38,3.18-.38,4.96s.12,3.44.38,4.99c.25,1.55.64,2.88,1.16,4,.52,1.12,1.18,2.01,1.97,2.67.79.66,1.71.99,2.75.99s1.95-.33,2.73-.99c.77-.66,1.42-1.55,1.94-2.67.52-1.12.92-2.46,1.19-4,.27-1.55.41-3.21.41-4.99Z"/>
        <path class="cls-2" d="M287.73,80.41l-9.51-25h-.17l.23,25h-8.29v-41.06h10.21l9.46,25.35h.17l-.17-25.35h8v41.06h-9.92Z"/>
      </g>
    </g>
  </g>
</svg>