<?xml version="1.0" encoding="UTF-8"?>
<svg id="Layer_2" data-name="Layer 2" xmlns="http://www.w3.org/2000/svg" viewBox="0 0 504 121.5">
  <defs>
    <style>
      .cls-1 {
        fill: #fff;
      }

      .cls-2 {
        fill: #00a4ff;
      }
    </style>
  </defs>
  <g id="Layer_1-2" data-name="Layer 1">
    <g>
      <polygon class="cls-2" points="504 0 382.5 121.5 0 121.5 0 0 504 0"/>
      <g>
        <path class="cls-1" d="M57.64,71.94c0,2.2-.36,4.05-1.07,5.54-.72,1.49-1.65,2.69-2.81,3.6-1.16.91-2.47,1.57-3.92,1.97-1.45.41-2.91.61-4.38.61h-13.63v-41.06h12.3c1.28,0,2.63.14,4.06.41,1.43.27,2.74.78,3.92,1.54,1.18.75,2.17,1.83,2.96,3.22.79,1.39,1.19,3.19,1.19,5.39,0,2.44-.49,4.38-1.48,5.83-.99,1.45-2.19,2.5-3.62,3.16v.12c.77.19,1.55.54,2.32,1.04.77.5,1.47,1.15,2.09,1.94.62.79,1.12,1.75,1.51,2.87.39,1.12.58,2.4.58,3.83ZM48.07,54.63c0-1.59-.44-2.72-1.33-3.39-.89-.66-1.93-.99-3.13-.99h-3.13v8.93h3.19c1.12,0,2.14-.35,3.04-1.05.91-.7,1.36-1.87,1.36-3.5ZM48.83,71.1c0-.93-.15-1.72-.44-2.36s-.68-1.17-1.16-1.58c-.48-.41-1.03-.71-1.62-.9-.6-.19-1.19-.29-1.77-.29h-3.36v10.03h3.48c1.35,0,2.5-.41,3.45-1.22.95-.82,1.42-2.04,1.42-3.67Z"/>
        <path class="cls-1" d="M81.6,83.66l-1.68-7.48h-9.22l-1.68,7.48h-9.28l9.98-41.06h11.66l9.92,41.06h-9.69ZM75.45,51.53h-.23l-3.48,17.46h7.02l-3.31-17.46Z"/>
        <path class="cls-1" d="M112.63,83.66l-9.51-25h-.17l.23,25h-8.29v-41.06h10.21l9.45,25.35h.17l-.17-25.35h8v41.06h-9.92Z"/>
        <path class="cls-1" d="M147.6,83.66l-9.51-25h-.17l.23,25h-8.29v-41.06h10.21l9.45,25.35h.17l-.17-25.35h8v41.06h-9.92Z"/>
        <path class="cls-1" d="M164.83,83.66v-41.06h19.84v8.18h-10.96v8.06h10.09v7.66h-10.09v8.82h11.66v8.35h-20.53Z"/>
        <path class="cls-1" d="M207.95,83.66l-5.49-16.36h-2.72v16.36h-8.93v-41.06h13.14c3.97,0,7.06,1.03,9.26,3.1,2.2,2.07,3.3,5.15,3.3,9.25,0,1.51-.17,2.86-.52,4.06-.35,1.2-.8,2.22-1.36,3.07-.56.85-1.19,1.55-1.88,2.09-.69.54-1.37.93-2.02,1.16l7,18.33h-9.77ZM207.4,55.47c0-1.04-.15-1.89-.44-2.55-.29-.66-.67-1.18-1.13-1.57-.46-.39-.98-.65-1.54-.78-.56-.13-1.11-.2-1.65-.2h-2.9v10.38h2.73c1.31,0,2.46-.42,3.45-1.25.99-.83,1.48-2.17,1.48-4.03Z"/>
        <path class="cls-1" d="M250.96,83.66l-1.68-7.48h-9.22l-1.68,7.48h-9.28l9.98-41.06h11.66l9.92,41.06h-9.69ZM244.81,51.53h-.23l-3.48,17.46h7.02l-3.31-17.46Z"/>
        <path class="cls-1" d="M292.83,63.24c0,3.09-.34,5.9-1.02,8.41-.68,2.51-1.71,4.66-3.1,6.44-1.39,1.78-3.16,3.15-5.31,4.12-2.15.97-4.69,1.45-7.63,1.45h-11.54v-41.06h11.54c2.94,0,5.48.48,7.63,1.45,2.15.97,3.91,2.35,5.31,4.15,1.39,1.8,2.43,3.96,3.1,6.5.68,2.53,1.02,5.38,1.02,8.55ZM283.49,63.24c0-4.14-.71-7.26-2.12-9.37-1.41-2.11-3.24-3.16-5.48-3.16h-2.26v24.82h2.26c2.24,0,4.07-1.05,5.48-3.16,1.41-2.11,2.12-5.15,2.12-9.13Z"/>
      </g>
    </g>
  </g>
</svg>