<?xml version="1.0" encoding="UTF-8"?>
<svg id="Layer_2" data-name="Layer 2" xmlns="http://www.w3.org/2000/svg" viewBox="0 0 504 121.5">
  <defs>
    <style>
      .cls-1 {
        fill: #2508b7;
      }

      .cls-2 {
        fill: #fff;
      }
    </style>
  </defs>
  <g id="Layer_1-2" data-name="Layer 1">
    <g>
      <polygon class="cls-1" points="0 0 121.5 121.5 504 121.5 504 0 0 0"/>
      <g>
        <path class="cls-2" d="M247.73,79.91c-1.82,1.06-4.14,1.59-6.96,1.59-2.4,0-4.57-.53-6.53-1.59-1.95-1.06-3.62-2.55-5.02-4.47-1.39-1.91-2.47-4.2-3.25-6.84-.77-2.65-1.16-5.56-1.16-8.73s.39-6.15,1.16-8.82c.77-2.67,1.86-4.95,3.25-6.84,1.39-1.89,3.06-3.36,5.02-4.41,1.95-1.04,4.13-1.57,6.53-1.57,2.75,0,5.04.49,6.87,1.48,1.84.99,3.31,2.21,4.44,3.68l-4.99,6.73c-.7-.93-1.48-1.66-2.35-2.2-.87-.54-1.96-.81-3.28-.81-1.24,0-2.31.33-3.22.99s-1.68,1.56-2.32,2.7c-.64,1.14-1.11,2.49-1.42,4.06-.31,1.57-.46,3.24-.46,5.02s.15,3.44.46,4.99c.31,1.55.78,2.9,1.42,4.06.64,1.16,1.42,2.07,2.35,2.73.93.66,2.01.99,3.25.99s2.32-.31,3.25-.93c.93-.62,1.66-1.35,2.2-2.2l5.16,6.44c-1.12,1.59-2.59,2.91-4.41,3.97Z"/>
        <path class="cls-2" d="M273.71,80.41l-1.68-7.48h-9.22l-1.68,7.48h-9.28l9.98-41.06h11.66l9.92,41.06h-9.69ZM267.56,48.28h-.23l-3.48,17.46h7.02l-3.31-17.46Z"/>
        <path class="cls-2" d="M315.3,80.41l.35-28.19h-.23l-6.9,28.19h-6.55l-6.67-28.19h-.17l.29,28.19h-8.41v-41.06h11.72l6.61,26.45h.23l6.44-26.45h12.41v41.06h-9.11Z"/>
        <path class="cls-2" d="M357.06,52.22c0,2.28-.35,4.25-1.04,5.92-.7,1.66-1.62,3.04-2.78,4.12-1.16,1.08-2.47,1.89-3.94,2.41-1.47.52-2.96.78-4.47.78h-4v14.96h-9.11v-41.06h12.76c1.47,0,2.95.21,4.44.64,1.49.43,2.84,1.13,4.06,2.12,1.22.99,2.2,2.31,2.96,3.97.75,1.66,1.13,3.71,1.13,6.15ZM348.36,52.39c0-1.86-.45-3.19-1.33-4-.89-.81-1.97-1.22-3.25-1.22h-2.96v10.73h2.96c1.28,0,2.36-.47,3.25-1.42.89-.95,1.33-2.31,1.33-4.09Z"/>
        <path class="cls-2" d="M377.76,80.41l-1.68-7.48h-9.22l-1.68,7.48h-9.28l9.98-41.06h11.66l9.92,41.06h-9.69ZM371.61,48.28h-.23l-3.48,17.46h7.02l-3.31-17.46Z"/>
        <path class="cls-2" d="M391.05,80.41v-41.06h9.34v41.06h-9.34Z"/>
        <path class="cls-2" d="M429.03,80.41c-1.86.62-4.04.93-6.55.93s-4.9-.52-6.93-1.57c-2.03-1.04-3.75-2.5-5.16-4.38-1.41-1.88-2.49-4.13-3.25-6.76-.75-2.63-1.13-5.55-1.13-8.76s.38-6.14,1.13-8.79c.75-2.65,1.83-4.93,3.22-6.84s3.06-3.39,5.02-4.44,4.13-1.57,6.53-1.57c2.78,0,5.11.47,6.99,1.42,1.88.95,3.35,2.14,4.44,3.57l-5.05,6.79c-1.4-1.93-3.3-2.9-5.71-2.9-1.28,0-2.39.34-3.32,1.01-.93.68-1.71,1.6-2.33,2.75-.62,1.16-1.08,2.51-1.37,4.06-.29,1.55-.44,3.19-.44,4.93s.14,3.38.41,4.93c.27,1.55.71,2.9,1.31,4.06.6,1.16,1.36,2.09,2.28,2.78.91.7,2.01,1.04,3.29,1.04,1.4,0,2.49-.29,3.27-.87v-7.66h-4.41v-8.06h12.53v21.87c-1.31,1.01-2.9,1.82-4.76,2.44Z"/>
        <path class="cls-2" d="M457.92,80.41l-9.51-25h-.17l.23,25h-8.29v-41.06h10.21l9.45,25.35h.17l-.17-25.35h8v41.06h-9.92Z"/>
      </g>
    </g>
  </g>
</svg>