<?xml version="1.0" encoding="UTF-8"?>
<svg id="Layer_2" data-name="Layer 2" xmlns="http://www.w3.org/2000/svg" viewBox="0 0 504 121.5">
  <defs>
    <style>
      .cls-1 {
        fill: #fff;
      }

      .cls-2 {
        fill: #62ba06;
      }
    </style>
  </defs>
  <g id="Layer_1-2" data-name="Layer 1">
    <g>
      <polygon class="cls-2" points="0 0 121.5 121.5 504 121.5 504 0 0 0"/>
      <g>
        <path class="cls-1" d="M187.64,67.53c0,.85.11,1.65.32,2.41.21.75.49,1.41.84,1.97.35.56.77,1.01,1.28,1.33.5.33,1.06.49,1.68.49,1,0,1.82-.33,2.44-.99.62-.66,1.1-1.43,1.45-2.32l6.67,3.77c-1.01,2.24-2.41,4.02-4.21,5.34-1.8,1.31-4.03,1.97-6.7,1.97-1.78,0-3.43-.35-4.96-1.04-1.53-.7-2.86-1.73-4-3.1-1.14-1.37-2.03-3.06-2.67-5.08-.64-2.01-.96-4.33-.96-6.96,0-2.47.3-4.73.9-6.76.6-2.03,1.45-3.75,2.55-5.16,1.1-1.41,2.41-2.5,3.92-3.28,1.51-.77,3.17-1.16,4.99-1.16,2.09,0,3.87.41,5.34,1.22,1.47.81,2.68,1.92,3.62,3.33.95,1.41,1.63,3.09,2.06,5.05.43,1.95.64,4.09.64,6.41v2.55h-15.2ZM194.48,61.62c0-1.62-.25-2.98-.75-4.06-.5-1.08-1.33-1.62-2.49-1.62-.62,0-1.15.18-1.59.55-.45.37-.82.83-1.13,1.39-.31.56-.54,1.18-.7,1.86-.16.68-.23,1.3-.23,1.88h6.9Z"/>
        <path class="cls-1" d="M229.4,79.92c-1.82,1.06-4.14,1.59-6.96,1.59-2.4,0-4.57-.53-6.53-1.59-1.95-1.06-3.62-2.55-5.02-4.47-1.39-1.91-2.47-4.2-3.25-6.84s-1.16-5.56-1.16-8.73.39-6.15,1.16-8.82,1.86-4.95,3.25-6.84c1.39-1.89,3.06-3.36,5.02-4.41,1.95-1.04,4.13-1.57,6.53-1.57,2.74,0,5.04.49,6.87,1.48,1.84.99,3.31,2.21,4.44,3.68l-4.99,6.73c-.7-.93-1.48-1.66-2.35-2.2-.87-.54-1.96-.81-3.28-.81-1.24,0-2.31.33-3.22.99s-1.68,1.56-2.32,2.7c-.64,1.14-1.11,2.49-1.42,4.06-.31,1.57-.46,3.24-.46,5.02s.15,3.44.46,4.99c.31,1.55.78,2.9,1.42,4.06.64,1.16,1.42,2.07,2.35,2.73.93.66,2.01.99,3.25.99s2.32-.31,3.25-.93c.93-.62,1.66-1.35,2.2-2.2l5.16,6.44c-1.12,1.59-2.59,2.91-4.41,3.97Z"/>
        <path class="cls-1" d="M267.04,59.76c0,3.25-.37,6.22-1.1,8.9-.74,2.69-1.78,4.98-3.13,6.87-1.35,1.9-3.01,3.36-4.96,4.41s-4.15,1.57-6.58,1.57-4.63-.52-6.58-1.57-3.61-2.51-4.96-4.41c-1.35-1.89-2.4-4.18-3.13-6.87-.74-2.69-1.1-5.66-1.1-8.9s.36-6.2,1.07-8.84c.71-2.65,1.75-4.91,3.1-6.79,1.35-1.87,3.01-3.32,4.96-4.35,1.95-1.02,4.17-1.54,6.64-1.54s4.63.51,6.58,1.54c1.95,1.02,3.61,2.48,4.96,4.35,1.35,1.88,2.4,4.14,3.13,6.79.73,2.65,1.1,5.6,1.1,8.84ZM257.53,59.76c0-1.78-.14-3.43-.41-4.96-.27-1.53-.67-2.85-1.19-3.97-.52-1.12-1.17-2-1.94-2.64-.77-.64-1.68-.96-2.73-.96s-1.96.32-2.76.96c-.79.64-1.45,1.52-1.97,2.64-.52,1.12-.91,2.45-1.16,3.97-.25,1.53-.38,3.18-.38,4.96s.12,3.44.38,4.99c.25,1.55.64,2.88,1.16,4,.52,1.12,1.18,2.01,1.97,2.67.79.66,1.71.99,2.76.99s1.95-.33,2.73-.99c.77-.66,1.42-1.55,1.94-2.67.52-1.12.92-2.46,1.19-4,.27-1.55.41-3.21.41-4.99Z"/>
        <path class="cls-1" d="M300.97,80.41l.35-28.19h-.23l-6.9,28.19h-6.55l-6.67-28.19h-.17l.29,28.19h-8.41v-41.06h11.72l6.61,26.45h.23l6.44-26.45h12.41v41.06h-9.11Z"/>
        <path class="cls-1" d="M345.69,80.41l.35-28.19h-.23l-6.9,28.19h-6.55l-6.67-28.19h-.17l.29,28.19h-8.41v-41.06h11.72l6.61,26.45h.23l6.44-26.45h12.41v41.06h-9.11Z"/>
        <path class="cls-1" d="M362.1,80.41v-41.06h19.84v8.18h-10.96v8.06h10.09v7.66h-10.09v8.82h11.66v8.35h-20.53Z"/>
        <path class="cls-1" d="M405.23,80.41l-5.49-16.36h-2.72v16.36h-8.93v-41.06h13.14c3.97,0,7.06,1.03,9.26,3.1,2.2,2.07,3.3,5.15,3.3,9.25,0,1.51-.17,2.86-.52,4.06-.35,1.2-.8,2.22-1.36,3.07-.56.85-1.19,1.55-1.88,2.09-.69.54-1.37.93-2.02,1.16l7,18.33h-9.77ZM404.68,52.22c0-1.04-.15-1.89-.43-2.55-.29-.66-.67-1.18-1.13-1.57s-.98-.65-1.54-.78c-.56-.13-1.11-.2-1.65-.2h-2.9v10.38h2.73c1.31,0,2.46-.42,3.45-1.25.99-.83,1.48-2.17,1.48-4.03Z"/>
        <path class="cls-1" d="M440.69,79.92c-1.82,1.06-4.14,1.59-6.96,1.59-2.4,0-4.57-.53-6.52-1.59-1.95-1.06-3.62-2.55-5.02-4.47s-2.47-4.2-3.25-6.84-1.16-5.56-1.16-8.73.39-6.15,1.16-8.82,1.86-4.95,3.25-6.84,3.06-3.36,5.02-4.41c1.95-1.04,4.13-1.57,6.52-1.57,2.75,0,5.04.49,6.87,1.48,1.84.99,3.32,2.21,4.44,3.68l-4.99,6.73c-.7-.93-1.48-1.66-2.35-2.2-.87-.54-1.96-.81-3.28-.81-1.24,0-2.31.33-3.22.99-.91.66-1.68,1.56-2.32,2.7-.64,1.14-1.11,2.49-1.42,4.06-.31,1.57-.46,3.24-.46,5.02s.15,3.44.46,4.99c.31,1.55.78,2.9,1.42,4.06.64,1.16,1.42,2.07,2.35,2.73.93.66,2.01.99,3.25.99s2.32-.31,3.25-.93c.93-.62,1.66-1.35,2.2-2.2l5.16,6.44c-1.12,1.59-2.59,2.91-4.41,3.97Z"/>
        <path class="cls-1" d="M449.16,80.41v-41.06h19.84v8.18h-10.96v8.06h10.09v7.66h-10.09v8.82h11.66v8.35h-20.53Z"/>
      </g>
    </g>
  </g>
</svg>