<?xml version="1.0" encoding="UTF-8"?>
<svg id="Layer_2" data-name="Layer 2" xmlns="http://www.w3.org/2000/svg" viewBox="0 0 504 121.5">
  <defs>
    <style>
      .cls-1 {
        fill: #ac55ff;
      }

      .cls-2 {
        fill: #fff;
      }
    </style>
  </defs>
  <g id="Layer_1-2" data-name="Layer 1">
    <g>
      <polygon class="cls-1" points="0 0 121.5 121.5 504 121.5 504 0 0 0"/>
      <g>
        <path class="cls-2" d="M332.52,80.41v-41.06h19.84v8.18h-10.96v8.06h10.09v7.66h-10.09v8.82h11.66v8.35h-20.53Z"/>
        <path class="cls-2" d="M386.81,80.41l.35-28.19h-.23l-6.9,28.19h-6.55l-6.67-28.19h-.17l.29,28.19h-8.41v-41.06h11.72l6.61,26.45h.23l6.44-26.45h12.41v41.06h-9.11Z"/>
        <path class="cls-2" d="M421.44,80.41l-1.68-7.48h-9.22l-1.68,7.48h-9.28l9.98-41.06h11.66l9.92,41.06h-9.69ZM415.29,48.28h-.23l-3.48,17.46h7.02l-3.31-17.46Z"/>
        <path class="cls-2" d="M434.72,80.41v-41.06h9.34v41.06h-9.34Z"/>
        <path class="cls-2" d="M451.36,80.41v-41.06h9.4v32.48h10.96v8.58h-20.36Z"/>
      </g>
    </g>
  </g>
</svg>