<?xml version="1.0" encoding="UTF-8"?>
<svg id="Layer_2" data-name="Layer 2" xmlns="http://www.w3.org/2000/svg" viewBox="0 0 504 121.5">
  <defs>
    <style>
      .cls-1 {
        fill: #474747;
      }

      .cls-2 {
        fill: #ffeb5a;
      }
    </style>
  </defs>
  <g id="Layer_1-2" data-name="Layer 1">
    <g>
      <polygon class="cls-2" points="0 0 121.5 121.5 504 121.5 504 0 0 0"/>
      <g>
        <path class="cls-1" d="M160.5,52.22c0,2.28-.35,4.25-1.04,5.92-.7,1.66-1.62,3.04-2.78,4.12-1.16,1.08-2.47,1.89-3.94,2.41-1.47.52-2.96.78-4.47.78h-4v14.96h-9.11v-41.06h12.76c1.47,0,2.95.21,4.44.64,1.49.43,2.84,1.13,4.06,2.12s2.2,2.31,2.96,3.97c.75,1.66,1.13,3.71,1.13,6.15ZM151.8,52.39c0-1.86-.44-3.19-1.33-4-.89-.81-1.97-1.22-3.25-1.22h-2.96v10.73h2.96c1.28,0,2.36-.47,3.25-1.42s1.33-2.31,1.33-4.09Z"/>
        <path class="cls-1" d="M182.57,80.41l-5.49-16.36h-2.72v16.36h-8.93v-41.06h13.14c3.97,0,7.06,1.03,9.26,3.1,2.2,2.07,3.3,5.15,3.3,9.25,0,1.51-.17,2.86-.52,4.06-.35,1.2-.8,2.22-1.36,3.07-.56.85-1.18,1.55-1.88,2.09-.69.54-1.37.93-2.02,1.16l7,18.33h-9.77ZM182.01,52.22c0-1.04-.14-1.89-.44-2.55-.29-.66-.67-1.18-1.13-1.57-.46-.39-.98-.65-1.54-.78-.56-.13-1.11-.2-1.65-.2h-2.9v10.38h2.73c1.31,0,2.46-.42,3.45-1.25.99-.83,1.48-2.17,1.48-4.03Z"/>
        <path class="cls-1" d="M196.8,80.41v-41.06h19.84v8.18h-10.96v8.06h10.09v7.66h-10.09v8.82h11.66v8.35h-20.53Z"/>
        <path class="cls-1" d="M239.78,49.15c-.7-.81-1.51-1.44-2.44-1.89-.93-.44-1.89-.67-2.9-.67s-1.98.33-2.81.99c-.83.66-1.25,1.74-1.25,3.25,0,1.28.42,2.28,1.28,2.99.85.72,2.11,1.5,3.77,2.35.93.46,1.92,1.02,2.95,1.66,1.03.64,1.97,1.42,2.83,2.35.86.93,1.57,2.04,2.13,3.34s.85,2.84.85,4.62c0,2.21-.35,4.15-1.05,5.84-.7,1.68-1.64,3.08-2.83,4.18-1.19,1.1-2.56,1.94-4.11,2.5-1.55.56-3.16.84-4.83.84-2.47,0-4.73-.46-6.76-1.39-2.03-.93-3.66-2.01-4.9-3.25l4.76-6.96c.89.93,1.91,1.67,3.07,2.23,1.16.56,2.34.84,3.54.84,1.12,0,2.07-.37,2.84-1.1.77-.73,1.16-1.76,1.16-3.07s-.46-2.43-1.39-3.22c-.93-.79-2.28-1.63-4.06-2.52-1.12-.54-2.18-1.14-3.16-1.8-.99-.66-1.86-1.45-2.61-2.38-.75-.93-1.34-2.01-1.77-3.25s-.64-2.71-.64-4.41c0-2.28.38-4.24,1.13-5.89.75-1.64,1.74-2.99,2.96-4.03,1.22-1.04,2.57-1.82,4.06-2.32,1.49-.5,2.99-.75,4.49-.75,2.24,0,4.25.37,6.03,1.09,1.78.73,3.27,1.73,4.46,3l-4.81,6.81Z"/>
        <path class="cls-1" d="M249.52,80.41v-41.06h19.84v8.18h-10.96v8.06h10.09v7.66h-10.09v8.82h11.66v8.35h-20.53Z"/>
        <path class="cls-1" d="M293.26,80.41l-9.51-25h-.17l.23,25h-8.29v-41.06h10.21l9.45,25.35h.17l-.17-25.35h8v41.06h-9.92Z"/>
        <path class="cls-1" d="M323.42,47.23v33.18h-9.11v-33.18h-7.54v-7.89h24.19v7.89h-7.54Z"/>
        <path class="cls-1" d="M351.72,80.41l-1.68-7.48h-9.22l-1.68,7.48h-9.28l9.98-41.06h11.66l9.92,41.06h-9.69ZM345.57,48.28h-.23l-3.48,17.46h7.02l-3.31-17.46Z"/>
        <path class="cls-1" d="M376.89,47.23v33.18h-9.11v-33.18h-7.54v-7.89h24.19v7.89h-7.54Z"/>
        <path class="cls-1" d="M388.03,80.41v-41.06h9.34v41.06h-9.34Z"/>
        <path class="cls-1" d="M434.54,59.76c0,3.25-.37,6.22-1.1,8.9-.73,2.69-1.78,4.98-3.13,6.87-1.35,1.9-3.01,3.36-4.96,4.41-1.95,1.04-4.15,1.57-6.58,1.57s-4.63-.52-6.58-1.57c-1.95-1.04-3.61-2.51-4.96-4.41-1.35-1.89-2.4-4.18-3.13-6.87-.74-2.69-1.1-5.66-1.1-8.9s.36-6.2,1.07-8.84c.71-2.65,1.75-4.91,3.1-6.79,1.35-1.87,3.01-3.32,4.96-4.35,1.95-1.02,4.17-1.54,6.64-1.54s4.63.51,6.58,1.54c1.95,1.02,3.6,2.48,4.96,4.35,1.35,1.88,2.4,4.14,3.13,6.79.73,2.65,1.1,5.6,1.1,8.84ZM425.03,59.76c0-1.78-.14-3.43-.41-4.96-.27-1.53-.67-2.85-1.19-3.97-.52-1.12-1.17-2-1.94-2.64-.77-.64-1.68-.96-2.73-.96s-1.96.32-2.75.96c-.79.64-1.45,1.52-1.97,2.64-.52,1.12-.91,2.45-1.16,3.97-.25,1.53-.38,3.18-.38,4.96s.12,3.44.38,4.99c.25,1.55.64,2.88,1.16,4,.52,1.12,1.18,2.01,1.97,2.67.79.66,1.71.99,2.75.99s1.95-.33,2.73-.99c.77-.66,1.42-1.55,1.94-2.67.52-1.12.92-2.46,1.19-4,.27-1.55.41-3.21.41-4.99Z"/>
        <path class="cls-1" d="M457.92,80.41l-9.51-25h-.17l.23,25h-8.29v-41.06h10.21l9.46,25.35h.17l-.17-25.35h8v41.06h-9.92Z"/>
      </g>
    </g>
  </g>
</svg>