<?xml version="1.0" encoding="UTF-8"?>
<svg id="Layer_2" data-name="Layer 2" xmlns="http://www.w3.org/2000/svg" viewBox="0 0 504 121.5">
  <defs>
    <style>
      .cls-1 {
        fill: #fff;
      }

      .cls-2 {
        fill: #ff61b8;
      }
    </style>
  </defs>
  <g id="Layer_1-2" data-name="Layer 1">
    <g>
      <polygon class="cls-2" points="504 0 382.5 121.5 0 121.5 0 0 504 0"/>
      <g>
        <path class="cls-1" d="M57.18,52.22c0,2.28-.35,4.25-1.04,5.92-.7,1.66-1.62,3.04-2.78,4.12-1.16,1.08-2.47,1.89-3.94,2.41-1.47.52-2.96.78-4.47.78h-4v14.96h-9.11v-41.06h12.76c1.47,0,2.95.21,4.44.64,1.49.43,2.84,1.13,4.06,2.12,1.22.99,2.2,2.31,2.96,3.97.75,1.66,1.13,3.71,1.13,6.15ZM48.48,52.39c0-1.86-.44-3.19-1.33-4-.89-.81-1.97-1.22-3.25-1.22h-2.96v10.73h2.96c1.28,0,2.36-.47,3.25-1.42.89-.95,1.33-2.31,1.33-4.09Z"/>
        <path class="cls-1" d="M79.25,80.41l-5.49-16.36h-2.72v16.36h-8.93v-41.06h13.14c3.97,0,7.06,1.04,9.26,3.1,2.2,2.07,3.3,5.15,3.3,9.25,0,1.51-.17,2.86-.52,4.06-.35,1.2-.8,2.22-1.36,3.07-.56.85-1.19,1.55-1.88,2.09-.69.54-1.37.93-2.02,1.16l7,18.33h-9.77ZM78.7,52.22c0-1.04-.15-1.89-.44-2.55-.29-.66-.67-1.18-1.13-1.57-.46-.39-.98-.65-1.54-.78-.56-.13-1.11-.2-1.65-.2h-2.9v10.38h2.73c1.31,0,2.46-.42,3.45-1.25.99-.83,1.48-2.17,1.48-4.03Z"/>
        <path class="cls-1" d="M93.49,80.41v-41.06h9.34v41.06h-9.34Z"/>
        <path class="cls-1" d="M127.88,80.41l-9.51-25h-.17l.23,25h-8.29v-41.06h10.21l9.45,25.35h.17l-.17-25.35h8v41.06h-9.92Z"/>
        <path class="cls-1" d="M158.04,47.23v33.18h-9.11v-33.18h-7.54v-7.89h24.19v7.89h-7.54Z"/>
        <path class="cls-1" d="M180.89,82.61l-4.87-1.04,11.31-45.12,4.81,1.1-11.25,45.07Z"/>
        <path class="cls-1" d="M232.1,68.4c0,2.09-.34,3.92-1.01,5.51-.68,1.59-1.6,2.93-2.76,4.03-1.16,1.1-2.52,1.93-4.09,2.49-1.57.56-3.26.84-5.08.84-3.36,0-6.24-.86-8.64-2.58-2.4-1.72-3.98-4.34-4.76-7.86l8.18-2.09c.31,1.35.85,2.46,1.62,3.31.77.85,1.84,1.28,3.19,1.28.73,0,1.37-.15,1.91-.46.54-.31,1-.71,1.36-1.22.37-.5.64-1.07.81-1.71.17-.64.26-1.29.26-1.94,0-1.78-.51-3.09-1.54-3.94-1.02-.85-2.39-1.28-4.09-1.28h-2.09v-6.84h2.32c1.55,0,2.73-.45,3.57-1.36.83-.91,1.25-2.17,1.25-3.8,0-1.04-.3-2.03-.9-2.96-.6-.93-1.56-1.39-2.87-1.39-1.12,0-1.99.37-2.61,1.1-.62.73-1.08,1.66-1.39,2.78l-7.95-1.97c.46-1.78,1.13-3.29,2-4.52.87-1.24,1.86-2.25,2.96-3.04,1.1-.79,2.31-1.37,3.62-1.74,1.31-.37,2.65-.55,4-.55,1.51,0,2.97.23,4.38.7,1.41.46,2.68,1.16,3.8,2.09,1.12.93,2.02,2.09,2.7,3.48.68,1.39,1.01,3.02,1.01,4.87,0,2.4-.51,4.42-1.54,6.06-1.03,1.64-2.39,2.74-4.09,3.28v.17c1.97.54,3.54,1.66,4.7,3.36,1.16,1.7,1.74,3.67,1.74,5.92Z"/>
        <path class="cls-1" d="M266.96,59.99c0,3.09-.34,5.9-1.02,8.41-.68,2.51-1.71,4.66-3.1,6.44-1.39,1.78-3.16,3.15-5.31,4.12-2.15.97-4.69,1.45-7.63,1.45h-11.54v-41.06h11.54c2.94,0,5.48.48,7.63,1.45,2.15.97,3.91,2.35,5.31,4.15,1.39,1.8,2.43,3.96,3.1,6.5.68,2.53,1.02,5.38,1.02,8.55ZM257.63,59.99c0-4.14-.71-7.26-2.12-9.37-1.41-2.11-3.24-3.16-5.48-3.16h-2.26v24.82h2.26c2.24,0,4.07-1.05,5.48-3.16,1.41-2.11,2.12-5.15,2.12-9.13Z"/>
      </g>
    </g>
  </g>
</svg>