<?xml version="1.0" encoding="UTF-8"?>
<svg id="Layer_2" data-name="Layer 2" xmlns="http://www.w3.org/2000/svg" viewBox="0 0 504 121.5">
  <defs>
    <style>
      .cls-1 {
        fill: #474747;
      }

      .cls-2 {
        fill: #ffbb71;
      }
    </style>
  </defs>
  <g id="Layer_1-2" data-name="Layer 1">
    <g>
      <polygon class="cls-2" points="504 0 382.5 121.5 0 121.5 0 0 504 0"/>
      <g>
        <path class="cls-1" d="M57.93,52.22c0,2.28-.35,4.25-1.04,5.92-.7,1.66-1.62,3.04-2.78,4.12-1.16,1.08-2.47,1.89-3.94,2.41-1.47.52-2.96.78-4.47.78h-4v14.96h-9.11v-41.06h12.76c1.47,0,2.95.21,4.44.64,1.49.43,2.84,1.13,4.06,2.12,1.22.99,2.2,2.31,2.96,3.97.75,1.66,1.13,3.71,1.13,6.15ZM49.23,52.39c0-1.86-.44-3.19-1.33-4-.89-.81-1.97-1.22-3.25-1.22h-2.96v10.73h2.96c1.28,0,2.36-.47,3.25-1.42.89-.95,1.33-2.31,1.33-4.09Z"/>
        <path class="cls-1" d="M89.17,71.59c-.52,1.97-1.34,3.69-2.46,5.16-1.12,1.47-2.57,2.63-4.35,3.48-1.78.85-3.93,1.28-6.44,1.28s-4.64-.43-6.38-1.28c-1.74-.85-3.16-2.01-4.26-3.48-1.1-1.47-1.9-3.19-2.38-5.16-.48-1.97-.73-4.1-.73-6.38v-25.87h9.34v25.06c0,1.16.07,2.24.2,3.25.13,1.01.38,1.87.73,2.58.35.72.81,1.29,1.39,1.71.58.43,1.33.64,2.26.64s1.68-.21,2.26-.64c.58-.42,1.04-1,1.39-1.71.35-.71.59-1.58.72-2.58.14-1,.2-2.09.2-3.25v-25.06h9.28v25.87c0,2.28-.26,4.41-.78,6.38Z"/>
        <path class="cls-1" d="M122.37,68.69c0,2.2-.36,4.05-1.07,5.54-.72,1.49-1.65,2.69-2.81,3.6-1.16.91-2.47,1.57-3.92,1.97-1.45.41-2.91.61-4.38.61h-13.63v-41.06h12.3c1.28,0,2.63.14,4.06.41,1.43.27,2.74.78,3.92,1.54,1.18.75,2.17,1.83,2.96,3.22.79,1.39,1.19,3.19,1.19,5.39,0,2.44-.49,4.38-1.48,5.83-.99,1.45-2.19,2.5-3.62,3.16v.12c.77.19,1.55.54,2.32,1.04.77.5,1.47,1.15,2.09,1.94.62.79,1.12,1.75,1.51,2.87.39,1.12.58,2.4.58,3.83ZM112.8,51.38c0-1.59-.44-2.72-1.33-3.39-.89-.66-1.93-.99-3.13-.99h-3.13v8.93h3.19c1.12,0,2.14-.35,3.04-1.05.91-.7,1.36-1.87,1.36-3.5ZM113.55,67.85c0-.93-.15-1.72-.44-2.36s-.68-1.17-1.16-1.58c-.48-.41-1.03-.71-1.62-.9-.6-.19-1.19-.29-1.77-.29h-3.36v10.03h3.48c1.35,0,2.5-.41,3.45-1.22.95-.82,1.42-2.04,1.42-3.67Z"/>
        <path class="cls-1" d="M128.11,80.41v-41.06h9.4v32.48h10.96v8.58h-20.36Z"/>
        <path class="cls-1" d="M152.65,80.41v-41.06h9.34v41.06h-9.34Z"/>
        <path class="cls-1" d="M190.52,79.92c-1.82,1.06-4.14,1.59-6.96,1.59-2.4,0-4.57-.53-6.52-1.59-1.95-1.06-3.62-2.55-5.02-4.47s-2.47-4.2-3.25-6.84c-.77-2.65-1.16-5.56-1.16-8.73s.39-6.15,1.16-8.82c.77-2.67,1.86-4.95,3.25-6.84s3.06-3.36,5.02-4.41c1.95-1.04,4.13-1.57,6.52-1.57,2.75,0,5.04.49,6.87,1.48,1.84.99,3.31,2.21,4.44,3.68l-4.99,6.73c-.7-.93-1.48-1.66-2.35-2.2-.87-.54-1.96-.81-3.28-.81-1.24,0-2.31.33-3.22.99-.91.66-1.68,1.56-2.32,2.7-.64,1.14-1.11,2.49-1.42,4.06-.31,1.57-.46,3.24-.46,5.02s.15,3.44.46,4.99c.31,1.55.78,2.9,1.42,4.06.64,1.16,1.42,2.07,2.35,2.73.93.66,2.01.99,3.25.99s2.32-.31,3.25-.93c.93-.62,1.66-1.35,2.2-2.2l5.16,6.44c-1.12,1.59-2.59,2.91-4.41,3.97Z"/>
        <path class="cls-1" d="M216.5,80.41l-1.68-7.48h-9.22l-1.68,7.48h-9.28l9.98-41.06h11.66l9.92,41.06h-9.69ZM210.35,48.28h-.23l-3.48,17.46h7.02l-3.31-17.46Z"/>
        <path class="cls-1" d="M241.68,47.23v33.18h-9.11v-33.18h-7.54v-7.89h24.19v7.89h-7.54Z"/>
        <path class="cls-1" d="M252.81,80.41v-41.06h9.34v41.06h-9.34Z"/>
        <path class="cls-1" d="M299.33,59.76c0,3.25-.37,6.22-1.1,8.9-.73,2.69-1.78,4.98-3.13,6.87-1.35,1.9-3.01,3.36-4.96,4.41-1.95,1.04-4.15,1.57-6.58,1.57s-4.63-.52-6.58-1.57c-1.95-1.04-3.61-2.51-4.96-4.41-1.35-1.89-2.4-4.18-3.13-6.87-.74-2.69-1.1-5.66-1.1-8.9s.36-6.2,1.07-8.84c.71-2.65,1.75-4.91,3.1-6.79,1.35-1.87,3.01-3.32,4.96-4.35,1.95-1.02,4.17-1.54,6.64-1.54s4.63.51,6.58,1.54c1.95,1.02,3.61,2.48,4.96,4.35,1.35,1.88,2.4,4.14,3.13,6.79.73,2.65,1.1,5.6,1.1,8.84ZM289.81,59.76c0-1.78-.14-3.43-.41-4.96-.27-1.53-.67-2.85-1.19-3.97-.52-1.12-1.17-2-1.94-2.64-.77-.64-1.68-.96-2.73-.96s-1.96.32-2.75.96c-.79.64-1.45,1.52-1.97,2.64-.52,1.12-.91,2.45-1.16,3.97-.25,1.53-.38,3.18-.38,4.96s.12,3.44.38,4.99c.25,1.55.64,2.88,1.16,4,.52,1.12,1.18,2.01,1.97,2.67.79.66,1.71.99,2.75.99s1.95-.33,2.73-.99c.77-.66,1.42-1.55,1.94-2.67.52-1.12.92-2.46,1.19-4,.27-1.55.41-3.21.41-4.99Z"/>
        <path class="cls-1" d="M322.7,80.41l-9.51-25h-.17l.23,25h-8.29v-41.06h10.21l9.45,25.35h.17l-.17-25.35h8v41.06h-9.92Z"/>
      </g>
    </g>
  </g>
</svg>