<?xml version="1.0" encoding="UTF-8"?>
<svg id="Layer_2" data-name="Layer 2" xmlns="http://www.w3.org/2000/svg" viewBox="0 0 504 121.5">
  <defs>
    <style>
      .cls-1 {
        fill: #474747;
      }

      .cls-2 {
        fill: #50ff7d;
      }
    </style>
  </defs>
  <g id="Layer_1-2" data-name="Layer 1">
    <g>
      <polygon class="cls-2" points="504 0 382.5 121.5 0 121.5 0 0 504 0"/>
      <g>
        <path class="cls-1" d="M69.42,81.28h-9.86l-5.05-27.55h-.12l-4.99,27.55h-9.86l-7.71-41.06h9.45l4.23,28.59h.23l4.47-28.59h8.99l4.64,28.59h.17l4.18-28.59h8.99l-7.77,41.06Z"/>
        <path class="cls-1" d="M81.31,81.28v-41.06h19.84v8.18h-10.96v8.06h10.09v7.66h-10.09v8.82h11.66v8.35h-20.53Z"/>
        <path class="cls-1" d="M133.1,69.57c0,2.2-.36,4.05-1.07,5.54-.72,1.49-1.65,2.69-2.81,3.6-1.16.91-2.47,1.57-3.92,1.97-1.45.41-2.91.61-4.38.61h-13.63v-41.06h12.3c1.28,0,2.63.14,4.06.41,1.43.27,2.74.78,3.92,1.54,1.18.75,2.17,1.83,2.96,3.22.79,1.39,1.19,3.19,1.19,5.39,0,2.44-.49,4.38-1.48,5.83-.99,1.45-2.19,2.5-3.62,3.16v.12c.77.19,1.55.54,2.32,1.04.77.5,1.47,1.15,2.09,1.94.62.79,1.12,1.75,1.51,2.87.39,1.12.58,2.4.58,3.83ZM123.53,52.25c0-1.59-.44-2.72-1.33-3.39-.89-.66-1.93-.99-3.13-.99h-3.13v8.93h3.19c1.12,0,2.14-.35,3.04-1.05.91-.7,1.36-1.87,1.36-3.5ZM124.29,68.73c0-.93-.15-1.72-.44-2.36s-.68-1.17-1.16-1.58c-.48-.41-1.03-.71-1.62-.9-.6-.19-1.19-.29-1.77-.29h-3.36v10.03h3.48c1.35,0,2.5-.41,3.45-1.22.95-.82,1.42-2.04,1.42-3.67Z"/>
        <path class="cls-1" d="M155.84,50.02c-.7-.81-1.51-1.44-2.44-1.89-.93-.44-1.9-.67-2.9-.67s-1.98.33-2.81.99c-.83.66-1.25,1.74-1.25,3.25,0,1.28.43,2.28,1.28,2.99.85.72,2.11,1.5,3.77,2.35.93.46,1.92,1.02,2.95,1.66,1.03.64,1.98,1.42,2.83,2.35.86.93,1.57,2.04,2.13,3.34.56,1.3.85,2.84.85,4.62,0,2.21-.35,4.15-1.05,5.84-.7,1.68-1.64,3.08-2.83,4.18-1.19,1.1-2.56,1.94-4.11,2.5-1.55.56-3.16.84-4.83.84-2.47,0-4.73-.46-6.76-1.39-2.03-.93-3.66-2.01-4.9-3.25l4.76-6.96c.89.93,1.91,1.67,3.07,2.23,1.16.56,2.34.84,3.54.84,1.12,0,2.07-.37,2.84-1.1.77-.73,1.16-1.76,1.16-3.07s-.46-2.43-1.39-3.22c-.93-.79-2.28-1.63-4.06-2.52-1.12-.54-2.17-1.14-3.16-1.8-.99-.66-1.86-1.45-2.61-2.38-.75-.93-1.34-2.01-1.77-3.25-.43-1.24-.64-2.71-.64-4.41,0-2.28.38-4.24,1.13-5.89.75-1.64,1.74-2.99,2.96-4.03,1.22-1.04,2.57-1.82,4.06-2.32,1.49-.5,2.99-.75,4.49-.75,2.24,0,4.25.37,6.03,1.09,1.78.73,3.27,1.73,4.47,3l-4.81,6.81Z"/>
        <path class="cls-1" d="M165.58,81.28v-41.06h9.34v41.06h-9.34Z"/>
        <path class="cls-1" d="M195.16,48.11v33.18h-9.11v-33.18h-7.54v-7.89h24.19v7.89h-7.54Z"/>
        <path class="cls-1" d="M206.3,81.28v-41.06h19.84v8.18h-10.96v8.06h10.09v7.66h-10.09v8.82h11.66v8.35h-20.53Z"/>
      </g>
    </g>
  </g>
</svg>