<?xml version="1.0" encoding="UTF-8"?>
<svg id="Layer_2" data-name="Layer 2" xmlns="http://www.w3.org/2000/svg" viewBox="0 0 37.6 41.99">
  <g id="Layer_1-2" data-name="Layer 1">
    <path d="M37.14,35.1c-.46-.3-1.08-.16-1.38.3-1.02,1.58-2.2,3.07-3.05,3.91,2.41-8.86,1.55-16.59-2.57-23-4.52-7.01-12.17-11.07-17.8-13.24C6.28.73,1.34.04,1.14,0,.59-.06.08.31,0,.86c-.08.55.31,1.05.85,1.13.19.03,19.48,2.83,27.59,15.42,3.67,5.7,4.52,12.59,2.56,20.5-.09-.25-.17-.49-.23-.7-.51-1.55-.95-2.88-1.73-3.46-.43-.32-1.01-.23-1.35.19-.34.42-.26,1.05.15,1.4.29.26.76,1.66,1.04,2.5.69,2.08,1.28,3.87,2.66,4.13.07.01.13.02.2.02,1.72.07,4.03-2.93,5.69-5.51.3-.46.17-1.08-.3-1.38Z"/>
  </g>
</svg>