<?xml version="1.0" encoding="UTF-8"?>
<svg xmlns="http://www.w3.org/2000/svg" version="1.1" viewBox="0 0 24 24">
  <!-- Generator: Adobe Illustrator 29.1.0, SVG Export Plug-In . SVG Version: 2.1.0 Build 142)  -->
  <defs>
    <style>
      .st0 {
        fill: #0a66c2;
      }

      .st1 {
        fill: #fff;
      }
    </style>
  </defs>
  <g id="Layer_1" focusable="false">
    <g>
      <path class="st0" d="M20.5,2H3.5c-.8,0-1.5.7-1.5,1.5v17c0,.8.7,1.5,1.5,1.5h17c.8,0,1.5-.7,1.5-1.5V3.5c0-.8-.7-1.5-1.5-1.5Z"/>
      <rect class="st1" x="5" y="10" width="3" height="9"/>
      <path class="st1" d="M6.5,8.2c-1,0-1.7-.8-1.7-1.8,0-1,.8-1.7,1.8-1.7.9,0,1.7.8,1.7,1.7,0,1-.8,1.8-1.8,1.8Z"/>
      <path class="st1" d="M19,19h-3v-4.7c0-1.4-.6-1.9-1.4-1.9-1,0-1.7.9-1.6,1.9,0,0,0,0,0,0,0,0,0,0,0,.1v4.7h-3v-9h2.9v1.3c.6-.9,1.6-1.4,2.7-1.4,1.6,0,3.4.9,3.4,3.7v5.4Z"/>
    </g>
  </g>
</svg>